<svg viewBox="0 0 800 800" xmlns="http://www.w3.org/2000/svg"><path d="M472.9279592858139,442.4616427196557 L473.4484136551763,80.97882500607597 M160.65533766831823,622.752324871067 L160.13139616750274,260.66249832813327 M472.9279592858139,442.4616427196557 L495.4433435298547,457.6269591047817 M495.4433435298547,457.6269591047817 L513.5842595937297,474.6418935095076 M513.5842595937297,474.6418935095076 L526.9013198243813,493.09056357456154 M526.9013198243813,493.09056357456154 L535.0624379120146,512.5211392082856 M535.0624379120146,512.5211392082856 L537.861350568599,532.4567415602352 M537.861350568599,532.4567415602352 L535.2232667145662,552.4070506264894 M535.2232667145662,552.4070506264894 L527.2072345521849,571.8803068488451 M527.2072345521849,571.8803068488451 L514.005315364473,590.3954535509372 M514.005315364473,590.3954535509372 L495.9383246008724,607.4941534853402 M495.9383246008724,607.4941534853402 L473.44841365517664,622.7523248710668 M473.44841365517664,622.7523248710668 L447.08838696677606,635.790839147923 M447.08838696677606,635.790839147923 L417.508255159523,646.2852383883112 M417.508255159523,646.2852383883112 L385.43905962784885,653.9740209225422 M385.43905962784885,653.9740209225422 L351.67468553903115,658.665422805869 M351.67468553903115,658.665422805869 L317.0518756617473,660.2423448927639 M317.0518756617473,660.2423448927639 L282.4290657844635,658.665422805869 M282.4290657844635,658.665422805869 L248.66469169564573,653.9740209225422 M248.66469169564573,653.9740209225422 L216.59549616397157,646.2852383883112 M216.59549616397157,646.2852383883112 L187.01536435671858,635.790839147923 M187.01536435671858,635.790839147923 L160.65533766831823,622.752324871067 M473.4484136551763,80.97882500607597 L496.0391423186528,96.09292796157024 M496.0391423186528,96.09292796157024 L514.240853587959,113.05043650062714 M514.240853587959,113.05043650062714 L527.6026449046731,131.43688212263004 M527.6026449046731,131.43688212263004 L535.7913005825196,150.80196685936977 M535.7913005825196,150.80196685936977 L538.5998437957123,170.67042448205277 M538.5998437957123,170.67042448205277 L535.953206962122,190.55358832444512 M535.953206962122,190.55358832444512 L527.9106093077579,209.9613522145951 M527.9106093077579,209.9613522145951 L514.6647304982579,228.41427223867424 M514.6647304982579,228.41427223867424 L496.537439842892,245.45554349196826 M496.537439842892,245.45554349196826 L473.9723551559922,260.6624983281331 M473.9723551559922,260.6624983281331 L447.52412536282964,273.6572694352518 M447.52412536282964,273.6572694352518 L417.84493911527176,284.11647602773667 M417.84493911527176,284.11647602773667 L385.6682948932034,291.77948308018483 M385.6682948932034,291.77948308018483 L351.7907519966325,296.4551613269008 M351.7907519966325,296.4551613269008 L317.0518756617473,298.0267988330697 M317.0518756617473,298.0267988330697 L282.31299932686215,296.4551613269008 M282.31299932686215,296.4551613269008 L248.43545643029114,291.77948308018483 M248.43545643029114,291.77948308018483 L216.25881220822293,284.11647602773667 M216.25881220822293,284.11647602773667 L186.579625960665,273.6572694352518 M186.579625960665,273.6572694352518 L160.13139616750274,260.66249832813327 M160.65533766831823,622.752324871067 L138.1654267226221,607.4941534853402 M138.1654267226221,607.4941534853402 L120.09843595902169,590.3954535509372 M120.09843595902169,590.3954535509372 L106.89651677130973,571.8803068488451 M106.89651677130973,571.8803068488451 L98.88048460892844,552.4070506264894 M98.88048460892844,552.4070506264894 L96.24240075489553,532.4567415602352 M96.24240075489553,532.4567415602352 L99.0413134114799,512.5211392082856 M99.0413134114799,512.5211392082856 L107.20243149911323,493.09056357456143 M107.20243149911323,493.09056357456143 L120.51949172976492,474.6418935095076 M120.51949172976492,474.6418935095076 L138.66040779363993,457.6269591047817 M138.66040779363993,457.6269591047817 L161.1757920376804,442.46164271965586 M161.1757920376804,442.46164271965586 L187.5103462775037,429.515983578426 M187.5103462775037,429.515983578426 L217.01655330966736,419.1053503397163 M217.01655330966736,419.1053503397163 L248.97060779840177,411.4830449332323 M248.97060779840177,411.4830449332323 L282.5898954367823,406.83432406373925 M282.5898954367823,406.83432406373925 L317.0518756617473,405.27210883727156 M317.0518756617473,405.27210883727156 L351.5138558867123,406.83432406373925 M351.5138558867123,406.83432406373925 L385.1331435250928,411.4830449332323 M385.1331435250928,411.4830449332323 L417.0871980138272,419.1053503397163 M417.0871980138272,419.1053503397163 L446.59340504599095,429.515983578426 M446.59340504599095,429.515983578426 L472.9279592858139,442.4616427196557 M160.13139616750274,260.66249832813327 L137.56631148060262,245.45554349196826 M137.56631148060262,245.45554349196826 L119.43902082523675,228.41427223867424 M119.43902082523675,228.41427223867424 L106.19314201573673,209.96135221459502 M106.19314201573673,209.96135221459502 L98.15054436137268,190.55358832444512 M98.15054436137268,190.55358832444512 L95.50390752778225,170.67042448205277 M95.50390752778225,170.67042448205277 L98.31245074097484,150.80196685936977 M98.31245074097484,150.80196685936977 L106.50110641882145,131.43688212263004 M106.50110641882145,131.43688212263004 L119.86289773553546,113.05043650062697 M119.86289773553546,113.05043650062697 L138.06460900484177,96.09292796157024 M138.06460900484177,96.09292796157024 L160.6553376683179,80.97882500607614 M160.6553376683179,80.97882500607614 L187.07792434609678,68.07690591571725 M187.07792434609678,68.07690591571725 L216.68269051196074,57.701462512251624 M216.68269051196074,57.701462512251624 L248.74342222681497,50.10493035602781 M248.74342222681497,50.10493035602781 L282.47490656765694,45.47193169070641 M282.47490656765694,45.47193169070641 L317.05187566174726,43.91500055143257 M317.05187566174726,43.91500055143257 L351.6288447558376,45.47193169070641 M351.6288447558376,45.47193169070641 L385.36032909667955,50.10493035602781 M385.36032909667955,50.10493035602781 L417.4210608115338,57.701462512251624 M417.4210608115338,57.701462512251624 L447.02582697739786,68.07690591571725 M447.02582697739786,68.07690591571725 L473.4484136551763,80.97882500607597" stroke="black"  stroke-width="4"  fill="red"/>
<path d="M682.3837329355346,683.1170602320688 L682.7912419787848,562.6224160740045 M578.294280173917,743.6164631566198 L578.5860081521549,623.0548226376025 M682.3837329355346,683.1170602320688 L693.4134047505811,691.2274598078659 M693.4134047505811,691.2274598078659 L700.7835126827417,700.6258470067698 M700.7835126827417,700.6258470067698 L704.0641796776961,710.7670567741554 M704.0641796776961,710.7670567741554 L703.0625142756357,721.0622115976334 M703.0625142756357,721.0622115976334 L697.8343777317094,730.9128356687243 M697.8343777317094,730.9128356687243 L688.6816408947267,739.7456641583785 M688.6816408947267,739.7456641583785 L676.1350976506058,747.0461365846925 M676.1350976506058,747.0461365846925 L660.9238983040508,752.388593929244 M660.9238983040508,752.388593929244 L643.9331737433491,755.461335220564 M643.9331737433491,755.461335220564 L626.15232084939,756.0849994485675 M626.15232084939,756.0849994485675 L608.6170559357494,754.2231665481168 M608.6170559357494,754.2231665481168 L592.3486951313814,749.9845348302017 M592.3486951313814,749.9845348302017 L578.294280173917,743.6164631566198 M682.7912419787848,562.6224160740045 L693.8332796762235,570.7238255554812 M693.8332796762235,570.7238255554812 L701.2116840713028,580.111798351287 M701.2116840713028,580.111798351287 L704.4960924722177,590.2417746606463 M704.4960924722177,590.2417746606463 L703.4933910143717,600.5255298227426 M703.4933910143717,600.5255298227426 L698.2594958943153,610.3652505310545 M698.2594958943153,610.3652505310545 L689.0966082235831,619.1883056157801 M689.0966082235831,619.1883056157801 L676.5361092958601,626.4807025879601 M676.5361092958601,626.4807025879601 L661.3079604356254,631.8172517341427 M661.3079604356254,631.8172517341427 L644.2982800361209,634.8865954265682 M644.2982800361209,634.8865954265682 L626.4975709927911,635.5095701024194 M626.4975709927911,635.5095701024194 L608.9427088656371,633.6497957783006 M608.9427088656371,633.6497957783006 L592.6561536933281,629.4158511275955 M592.6561536933281,629.4158511275955 L578.5860081521549,623.0548226376025 M578.294280173917,743.6164631566198 L567.2711861301411,735.4903916244818 M567.2711861301411,735.4903916244818 L559.9194855651874,726.0799227371187 M559.9194855651874,726.0799227371187 L556.6648386105543,715.9329893049853 M556.6648386105543,715.9329893049853 L557.6941558871982,705.6397685186648 M557.6941558871982,705.6397685186648 L562.9452768145917,695.7983135596648 M562.9452768145917,695.7983135596648 L572.1110451339537,686.9797771955186 M572.1110451339537,686.9797771955186 L584.6576815764653,679.6954457485429 M584.6576815764653,679.6954457485429 L599.856014481423,674.3672805272411 M599.856014481423,674.3672805272411 L616.8238605285811,671.3037083656293 M616.8238605285811,671.3037083656293 L634.5770839972693,670.6820012608034 M634.5770839972693,670.6820012608034 L652.0862627668222,672.5381104973897 M652.0862627668222,672.5381104973897 L668.3360766986787,676.7646605252078 M668.3360766986787,676.7646605252078 L682.3837329355346,683.1170602320688 M578.5860081521549,623.0548226376025 L567.5505628155167,614.9377410830742 M567.5505628155167,614.9377410830742 L560.1906068204371,605.5376865088431 M560.1906068204371,605.5376865088431 L556.9322765357417,595.4019864921167 M556.9322765357417,595.4019864921167 L557.9626916603722,585.1201653944433 M557.9626916603722,585.1201653944433 L563.2196225561764,575.2896138664983 M563.2196225561764,575.2896138664983 L572.3955709059692,566.4808510137105 M572.3955709059692,566.4808510137105 L584.9561633444888,559.2045951410773 M584.9561633444888,559.2045951410773 L600.1714171196651,553.8823382245928 M600.1714171196651,553.8823382245928 L617.1581679682098,550.8221637301717 M617.1581679682098,550.8221637301717 L634.9311858692987,550.2011461792117 M634.9311858692987,550.2011461792117 L652.4599035548755,552.0551967968322 M652.4599035548755,552.0551967968322 L668.7278703542672,556.2770596674527 M668.7278703542672,556.2770596674527 L682.7912419787848,562.6224160740045" stroke="black"  stroke-width="4"  fill="red"/></svg>