<svg viewBox="0 0 800 800" xmlns="http://www.w3.org/2000/svg"><path d="M683.4521272190328,369.76652583782084 L683.5099308287945,249.52386028706286 M579.405629647963,429.83779921871576 L579.3476973712902,309.52816495101854 M683.4521272190328,369.76652583782084 L694.3937060412981,377.8195530520122 M694.3937060412981,377.8195530520122 L701.6820500127707,387.15145456142545 M701.6820500127707,387.15145456142545 L704.8920293730263,397.2209129166547 M704.8920293730263,397.2209129166547 L703.8348741328582,407.44321566982615 M703.8348741328582,407.44321566982615 L698.5696811458068,417.2241186058696 M698.5696811458068,417.2241186058696 L689.4004885911237,425.9944142529108 M689.4004885911237,425.9944142529108 L676.8590763223805,433.24319748166005 M676.8590763223805,433.24319748166005 L661.674304451714,438.5478276214488 M661.674304451714,438.5478276214488 L644.7297525381534,441.5988063097303 M644.7297525381534,441.5988063097303 L627.0121293916303,442.2180481573096 M627.0121293916303,442.2180481573096 L609.553467790469,440.3693958739107 M609.553467790469,440.3693958739107 L593.3706128818369,436.1607763797164 M593.3706128818369,436.1607763797164 L579.405629647963,429.83779921871576 M683.5099308287945,249.52386028706286 L694.4636841579742,257.5679012082476 M694.4636841579742,257.5679012082476 L701.760145497873,266.88939267572323 M701.760145497873,266.88939267572323 L704.9737098645325,276.9476222351753 M704.9737098645325,276.9476222351753 L703.9153939959505,287.158530013576 M703.9153939959505,287.158530013576 L698.6443569770171,296.9285340316533 M698.6443569770171,296.9285340316533 L689.4649722716455,305.6890602301517 M689.4649722716455,305.6890602301517 L676.9096096083229,312.9297712469891 M676.9096096083229,312.9297712469891 L661.7079398384395,318.22849554343253 M661.7079398384395,318.22849554343253 L644.7445270079002,321.2760779868287 M644.7445270079002,321.2760779868287 L627.0071803994967,321.89463056232046 M627.0071803994967,321.89463056232046 L609.5290842826827,320.0480360425364 M609.5290842826827,320.0480360425364 L593.3282181970774,315.8441017520908 M593.3282181970774,315.8441017520908 L579.3476973712902,309.52816495101854 M579.405629647963,429.83779921871576 L568.4706718865406,421.7692628293892 M568.4706718865406,421.7692628293892 L561.2006742822934,412.425405110338 M561.2006742822934,412.425405110338 L558.0165636508283,402.3502825363734 M558.0165636508283,402.3502825363734 L559.1011837783755,392.12990515446086 M559.1011837783755,392.12990515446086 L564.389145946104,382.3580761028106 M564.389145946104,382.3580761028106 L573.5711958232981,373.60192413662486 M573.5711958232981,373.60192413662486 L586.1126081003322,366.36911424308727 M586.1126081003322,366.36911424308727 L601.2845226579074,361.0786277930357 M601.2845226579074,361.0786277930357 L618.2063053849107,358.03672299319214 M618.2063053849107,358.03672299319214 L635.8964636279547,357.41940652206 M635.8964636279547,357.41940652206 L653.329256487914,359.26239457623996 M653.329256487914,359.26239457623996 L669.4937650313192,363.4590578576275 M669.4937650313192,363.4590578576275 L683.4521272190328,369.76652583782084 M579.3476973712902,309.52816495101854 L568.4005798410017,301.4686149122942 M568.4005798410017,301.4686149122942 L561.1225057060985,292.1351672795884 M561.1225057060985,292.1351672795884 L557.9348676502497,282.07127352244134 M557.9348676502497,282.07127352244134 L559.0207095411675,271.8622911081474 M559.0207095411675,271.8622911081474 L564.3145664234221,262.101360940759 M564.3145664234221,262.101360940759 L573.5068370708419,253.35497837058725 M573.5068370708419,253.35497837058725 L586.0621997424926,246.13024062964718 M586.0621997424926,246.13024062964718 L601.250983579789,240.84565997042952 M601.250983579789,240.84565997042952 L618.1915765411011,237.80715138178704 M618.1915765411011,237.80715138178704 L635.9013971109968,237.19052417559547 M635.9013971109968,237.19052417559547 L653.3535669045333,239.03145448718675 M653.3535669045333,239.03145448718675 L669.5360457871506,243.22343260921224 M669.5360457871506,243.22343260921224 L683.5099308287945,249.52386028706286" stroke="black"  stroke-width="4"  fill="red"/>
<path d="M475.1275316371134,490.042787175862 L474.60381221131354,128.10643407177895 M160.895876157183,671.4645180551016 L159.31415547119576,308.9213931116073 M475.1275316371134,490.042787175862 L497.62057973450464,505.3030869469942 M497.62057973450464,505.3030869469942 L515.715724888341,522.424623331889 M515.715724888341,522.424623331889 L528.9646617794386,540.9889244870939 M528.9646617794386,540.9889244870939 L537.0369807410901,560.54131372945 M537.0369807410901,560.54131372945 L539.7285034034345,580.6019622050477 M539.7285034034345,580.6019622050477 L536.9670724870872,600.677459160301 M536.9670724870872,600.677459160301 L528.81476903821,620.272940360754 M528.81476903821,620.272940360754 L515.4669360482904,638.9043531537892 M515.4669360482904,638.9043531537892 L497.2479842230732,656.1104653670968 M497.2479842230732,656.1104653670968 L474.60381221131354,671.4645180551016 M474.60381221131354,671.4645180551016 L448.0910565570043,684.5849772635908 M448.0910565570043,684.5849772635908 L418.3634746108837,695.1453573374846 M418.3634746108837,695.1453573374846 L386.1557982694263,702.8824876910415 M386.1557982694263,702.8824876910415 L352.2653383513915,707.6034047724785 M352.2653383513915,707.6034047724785 L317.5320346343424,709.1902387361773 M317.5320346343424,709.1902387361773 L282.81705417192256,707.6033931839543 M282.81705417192256,707.6033931839543 L248.98112659108213,702.8824876910415 M248.98112659108213,702.8824876910415 L216.86280095365737,695.1453515458774 M216.86280095365737,695.1453515458774 L187.2571246453066,684.5849975263407 M187.2571246453066,684.5849975263407 L160.895876157183,671.4645180551016 M474.60381221131354,128.10643407177895 L497.1720871341547,143.3155388566168 M497.1720871341547,143.3155388566168 L515.3277466780336,160.3796703940402 M515.3277466780336,160.3796703940402 L528.6209771464827,178.8817702652941 M528.6209771464827,178.8817702652941 L536.7202499892661,198.36869349933872 M536.7202499892661,198.36869349933872 L539.4206870382166,218.36222318981413 M539.4206870382166,218.36222318981413 L536.649871832108,238.37060135884255 M536.649871832108,238.37060135884255 L528.4700766582132,257.90061654793783 M528.4700766582132,257.90061654793783 L515.0772852772125,276.4698280720249 M515.0772852772125,276.4698280720249 L496.7969867643675,293.618535423611 M496.7969867643675,293.618535423611 L474.0765719826511,308.9213931116073 M474.0765719826511,308.9213931116073 L447.4745484894959,321.9981278229023 M447.4745484894959,321.9981278229023 L417.6468780074871,332.52333039286617 M417.6468780074871,332.52333039286617 L385.3307754218414,340.23469645073385 M385.3307754218414,340.23469645073385 L351.32625008889624,344.9398967170956 M351.32625008889624,344.9398967170956 L316.4760869384356,346.5214484311695 M316.4760869384356,346.5214484311695 L281.644370515467,344.9398851671484 M281.644370515467,344.9398851671484 L247.6947449018922,340.23469645073385 M247.6947449018922,340.23469645073385 L215.46859497976183,332.52332462054744 M215.46859497976183,332.52332462054744 L185.76365144378957,321.99814801814216 M185.76365144378957,321.99814801814216 L159.31415547119576,308.9213931116073 M160.895876157183,671.4645180551016 L138.42898238871453,656.1104798253278 M138.42898238871453,656.1104798253278 L120.40875467360348,638.9043473741599 M120.40875467360348,638.9043473741599 L107.2760486797506,620.272940360754 M107.2760486797506,620.272940360754 L99.34999454475764,600.6774476173113 M99.34999454475764,600.6774476173113 L96.82037538664781,580.6019622050476 M96.82037538664781,580.6019622050476 L99.74353835192233,560.5413252553711 M99.74353835192233,560.5413252553711 L108.04162908165733,540.9889129694832 M108.04162908165733,540.9889129694832 L121.50493794623611,522.4246175770277 M121.50493794623611,522.4246175770277 L139.797790564891,505.3030783201564 M139.797790564891,505.3030783201564 L162.46703443458267,490.042787175862 M162.46703443458267,490.042787175862 L188.95363655920286,477.01606657335856 M188.95363655920286,477.01606657335856 L218.60634167675192,466.5402599413102 M218.60634167675192,466.5402599413102 L250.69776713570832,458.87024748726094 M250.69776713570832,458.87024748726094 L284.4419416548064,454.192445890703 M284.4419416548064,454.192445890703 L319.01334100597364,452.6204490120956 M319.01334100597364,452.6204490120956 L353.56658855967237,454.1924344099482 M353.56658855967237,454.1924344099482 L387.25674836778904,458.8702589700007 M387.25674836778904,458.8702589700007 L419.25961811583704,466.54026568430737 M419.25961811583704,466.54026568430737 L448.79135408414095,477.01606944596875 M448.79135408414095,477.01606944596875 L475.1275316371134,490.042787175862 M159.31415547119576,308.9213931116073 L136.77221260319948,293.61854983362036 M136.77221260319948,293.61854983362036 L118.69197566195731,276.46982231168425 M118.69197566195731,276.46982231168425 L105.51575885106081,257.90061654793783 M105.51575885106081,257.90061654793783 L97.5637348995258,238.37058985443028 M97.5637348995258,238.37058985443028 L95.02629013546755,218.36222318981405 M95.02629013546755,218.36222318981405 L97.95992443930197,198.36870498668225 M97.95992443930197,198.36870498668225 L106.28648600024945,178.8817587862611 M106.28648600024945,178.8817587862611 L119.79552825522757,160.37966465846756 M119.79552825522757,160.37966465846756 L138.15022272582019,143.315530258712 M138.15022272582019,143.315530258712 L160.895876157183,128.10643407177895 M160.895876157183,128.10643407177895 L187.47156840591617,115.12343800206668 M187.47156840591617,115.12343800206668 L217.2238570379433,104.68280887219424 M217.2238570379433,104.68280887219424 L249.42292591343715,97.03856071307325 M249.42292591343715,97.03856071307325 L283.2801817079704,92.3764758542419 M283.2801817079704,92.3764758542419 L317.96735170026386,90.80976126382268 M317.96735170026386,90.80976126382268 L352.6362481541166,92.37646441206414 M352.6362481541166,92.37646441206414 L386.43912694930225,97.03857215723588 M386.43912694930225,97.03857215723588 L418.5490460500811,104.68281459590287 M418.5490460500811,104.68281459590287 L448.17955395354466,115.12344086503265 M448.17955395354466,115.12344086503265 L474.60381221131354,128.10643407177895" stroke="black"  stroke-width="4"  fill="red"/></svg>